<svg xmlns="http://www.w3.org/2000/svg" viewBox="0 0 320 400" fill="none">
  <defs>
    <linearGradient id="bg" x1="0" y1="0" x2="1" y2="1">
      <stop offset="0%" stop-color="#e8eef5"/>
      <stop offset="100%" stop-color="#d4dce8"/>
    </linearGradient>
    <linearGradient id="suit" x1="0" y1="0" x2="0" y2="1">
      <stop offset="0%" stop-color="#1e3a5f"/>
      <stop offset="100%" stop-color="#0f2744"/>
    </linearGradient>
  </defs>
  <rect width="320" height="400" rx="12" fill="url(#bg)"/>
  <ellipse cx="160" cy="300" rx="140" ry="120" fill="url(#suit)"/>
  <path fill="#c9a66b" d="M160 52c-38 0-62 28-62 68 0 24 8 44 22 58-6 14-10 30-10 48 0 52 22 94 50 94s50-42 50-94c0-18-4-34-10-48 14-14 22-34 22-58 0-40-24-68-62-68z"/>
  <ellipse cx="160" cy="118" rx="48" ry="56" fill="#e8c4a0"/>
  <path fill="#1a1a1a" d="M112 108c8-28 28-44 48-44s40 16 48 44c-12-20-28-32-48-32s-36 12-48 32z"/>
</svg>
